<svg width="113" height="103" viewBox="0 0 113 103" fill="none" xmlns="http://www.w3.org/2000/svg">
<path d="M107.657 18.7532H19.8758L18.5709 4.2027C18.3575 1.82323 16.3652 0 13.9786 0H4.61073C2.06429 0 0 2.0663 0 4.61522C0 7.16414 2.06429 9.23043 4.61073 9.23043H9.76334C12.5792 40.6319 5.30169 -40.5293 15.0663 68.3687C15.4427 72.631 17.7434 77.2561 21.7069 80.3988C14.5609 89.5334 21.0902 103 32.7143 103C42.3621 103 49.1669 93.3683 45.8584 84.2459H71.0936C67.7892 93.3566 74.5793 103 84.2377 103C91.9455 103 98.2163 96.7231 98.2163 89.0078C98.2163 81.2924 91.9455 75.0155 84.2377 75.0155H32.7454C29.243 75.0155 26.1909 72.9004 24.8736 69.8188L98.5593 65.484C100.571 65.3658 102.273 63.9531 102.762 61.9962L112.13 24.4877C112.857 21.5792 110.657 18.7532 107.657 18.7532ZM32.7143 93.7696C30.0914 93.7696 27.9573 91.6334 27.9573 89.0078C27.9573 86.3821 30.0914 84.2459 32.7143 84.2459C35.3373 84.2459 37.4714 86.3821 37.4714 89.0078C37.4714 91.6334 35.3373 93.7696 32.7143 93.7696ZM84.2374 93.7696C81.6144 93.7696 79.4803 91.6334 79.4803 89.0078C79.4803 86.3821 81.6144 84.2459 84.2374 84.2459C86.8605 84.2459 88.9946 86.3821 88.9946 89.0078C88.9946 91.6334 86.8605 93.7696 84.2374 93.7696ZM94.6371 56.4685L23.6324 60.6453L20.7035 27.9834H101.752L94.6371 56.4685Z" fill="#A0CC39"/>
</svg>
