<svg width="104" height="104" viewBox="0 0 104 104" fill="none" xmlns="http://www.w3.org/2000/svg">
<path d="M51.6747 0C23.1851 0 0 23.1803 0 51.6716C0 80.1566 23.1851 103.343 51.6747 103.343C80.1629 103.343 103.343 80.1566 103.343 51.6716C103.343 23.1803 80.1629 0 51.6747 0ZM51.6747 99.4895C25.3059 99.4895 3.85229 78.0375 3.85229 51.6716C3.85229 25.3027 25.3059 3.84904 51.6747 3.84904C78.0405 3.84904 99.4957 25.3027 99.4957 51.6716C99.4955 78.0375 78.0403 99.4895 51.6747 99.4895Z" fill="#A0CC39"/>
<path fill-rule="evenodd" clip-rule="evenodd" d="M51.3052 101.878C79.2355 101.878 101.878 79.2355 101.878 51.3052C101.878 23.3749 79.2355 0.732941 51.3052 0.732941C23.3749 0.732941 0.732941 23.3749 0.732941 51.3052C0.732941 79.2355 23.3749 101.878 51.3052 101.878ZM2.19876 51.0321C2.19876 24.0603 24.0602 2.19882 51.0318 2.19882C77.9999 2.19882 99.8614 24.0606 99.8687 51.0324C99.8687 69.0702 90.0654 84.7823 75.5191 93.2394L74.2045 68.0661C74.2045 68.0661 74.2684 68.0418 74.339 68.0169C78.2755 67.1193 81.6436 64.5889 83.7536 61.4365C86.3968 57.482 81.7248 22.4826 81.7248 22.4826H79.3924V55.3297H76.3781V22.4826H72.9535V55.3297H69.9495V22.4826H66.6487V55.3224H63.6304V22.4789H60.5912C60.5912 22.4789 55.9191 57.4784 58.559 61.4328C60.69 64.6166 64.09 67.1543 68.0761 68.0309L66.5635 97.2961C61.6795 98.9325 56.4739 99.8584 51.0385 99.8584C47.0079 99.8584 43.1134 99.3173 39.3675 98.3954L37.6605 65.5571C37.6605 65.5571 41.1451 64.2917 41.1928 64.2707C47.2783 61.5813 51.7137 53.6756 51.7137 43.4109C51.7137 32.2096 43.0267 22.5617 34.6264 22.4823H34.6125H34.5948C26.1964 22.562 17.5097 32.2099 17.5097 43.4109C17.5097 53.6756 21.9396 61.5846 28.0376 64.2707C28.6669 64.5779 31.5419 65.5215 31.5419 65.5215L30.0134 95.0556C13.5801 87.1959 2.19876 70.4657 2.19876 51.0321Z" fill="#A0CC39"/>
</svg>
